<svg width="34" height="34" viewBox="0 0 34 34" fill="none" xmlns="http://www.w3.org/2000/svg">
<path fill-rule="evenodd" clip-rule="evenodd" d="M17.5776 16.0028C17.2214 16.208 17.002 16.5879 17.002 16.999C17.002 17.41 17.2214 17.7899 17.5776 17.9951L28.057 24.0351C28.4594 24.267 28.9549 24.2667 29.3571 24.0343C29.7592 23.8021 30.0069 23.3729 30.0069 22.9084V11.0895C30.0069 10.625 29.7592 10.1958 29.3571 9.96358C28.9549 9.73117 28.4594 9.73087 28.057 9.96282L17.5776 16.0028V16.0028Z" fill="#88C0D0"/>
<path fill-rule="evenodd" clip-rule="evenodd" d="M4.57171 16.0028C4.21554 16.208 3.99609 16.5879 3.99609 16.999C3.99609 17.41 4.21554 17.7899 4.57171 17.9951L15.0512 24.0351C15.4535 24.267 15.949 24.2667 16.3512 24.0343C16.7534 23.8021 17.001 23.3729 17.001 22.9084V11.0895C17.001 10.625 16.7534 10.1958 16.3512 9.96358C15.949 9.73117 15.4535 9.73087 15.0512 9.96282L4.57171 16.0028V16.0028Z" fill="#88C0D0"/>
</svg>
