<svg width="24" height="24" viewBox="0 0 24 24" fill="none" xmlns="http://www.w3.org/2000/svg">
<path d="M1 18V21H4C4 19.34 2.66 18 1 18ZM1 14V16C3.76 16 6 18.24 6 21H8C8 17.13 4.87 14 1 14ZM1 10V12C2.1819 12 3.35222 12.2328 4.44415 12.6851C5.53608 13.1374 6.52823 13.8003 7.36396 14.636C8.19969 15.4718 8.86262 16.4639 9.31492 17.5558C9.76721 18.6478 10 19.8181 10 21H12C12 14.92 7.07 10 1 10ZM21 3H3C1.9 3 1 3.9 1 5V8H3V5H21V19H14V21H21C22.1 21 23 20.1 23 19V5C23 3.9 22.1 3 21 3Z" fill="#88C0D0"/>
</svg>
