<svg width="1000" height="1000" viewBox="0 0 1000 1000" fill="none" xmlns="http://www.w3.org/2000/svg">
<path d="M126.429 12.88C102.829 17.08 72.1491 34.12 53.2691 53.26C8.42914 97.84 -2.06086 161.29 25.7291 219.5C36.4791 241.53 37.5291 242.84 165.229 370.8L293.979 500.08L165.229 629.09C38.5791 756.53 36.4791 758.63 25.7291 780.66C4.74914 823.66 4.74914 866.15 25.7291 908.62C43.0391 944.28 69.5191 967.62 108.589 981.78C144.509 994.89 181.749 992.27 219.509 974.17C241.539 963.68 242.589 962.63 371.069 834.93L500.079 706.18L629.349 834.67C765.969 971.02 766.749 971.55 804.249 984.13C824.179 990.95 865.609 990.95 885.539 984.13C920.679 972.33 952.409 948.21 968.399 920.94C994.889 875.58 996.979 825.75 974.169 779.87C963.949 759.15 959.219 754.17 834.669 629.09L706.189 500.08L834.939 370.81C962.639 242.58 963.689 241.54 974.179 219.51C992.269 181.75 994.899 144.52 981.789 108.59C972.869 83.94 962.649 67.95 945.599 51.43C900.499 7.89996 836.519 -1.80004 779.879 25.99C759.159 36.22 754.179 40.94 629.359 165.49L500.089 293.98L371.079 165.22C242.589 37.26 241.799 36.48 219.509 25.99C187.259 10.51 159.199 6.57996 126.429 12.88V12.88Z" fill="url(#paint0_linear_503_10)"/>
<defs>
<linearGradient id="paint0_linear_503_10" x1="9.99414" y1="10.0076" x2="989.999" y2="10.0076" gradientUnits="userSpaceOnUse">
<stop stop-color="#BF616A"/>
<stop offset="1" stop-color="#BF616A"/>
</linearGradient>
</defs>
</svg>
