<svg width="34" height="34" viewBox="0 0 34 34" fill="none" xmlns="http://www.w3.org/2000/svg">
<path fill-rule="evenodd" clip-rule="evenodd" d="M16.4224 16.0028C16.7786 16.208 16.998 16.5879 16.998 16.999C16.998 17.41 16.7786 17.7899 16.4224 17.9951L5.94296 24.0351C5.54065 24.267 5.04513 24.2667 4.64295 24.0343C4.24076 23.8021 3.99313 23.3729 3.99313 22.9084V11.0895C3.99313 10.625 4.24076 10.1958 4.64295 9.96358C5.04513 9.73117 5.54065 9.73087 5.94296 9.96282L16.4224 16.0028V16.0028Z" fill="#88C0D0"/>
<path fill-rule="evenodd" clip-rule="evenodd" d="M29.4283 16.0028C29.7845 16.208 30.0039 16.5879 30.0039 16.999C30.0039 17.41 29.7845 17.7899 29.4283 17.9951L18.9488 24.0351C18.5465 24.267 18.051 24.2667 17.6488 24.0343C17.2466 23.8021 16.999 23.3729 16.999 22.9084V11.0895C16.999 10.625 17.2466 10.1958 17.6488 9.96358C18.051 9.73117 18.5465 9.73087 18.9488 9.96282L29.4283 16.0028V16.0028Z" fill="#88C0D0"/>
</svg>
