<svg width="28" height="28" viewBox="0 0 28 28" fill="none" xmlns="http://www.w3.org/2000/svg">
<path d="M7.10016 22.0831H20.8902C22.2532 22.0831 23.1232 21.0811 23.1232 19.8511C23.1232 19.4811 23.0262 19.1041 22.8332 18.7521L15.9252 6.41206C15.7384 6.06476 15.4604 5.77493 15.1213 5.57372C14.7821 5.37251 14.3945 5.26753 14.0002 5.27006C13.6049 5.26915 13.2168 5.37471 12.8765 5.57567C12.5361 5.77662 12.2562 6.06554 12.0662 6.41206L5.16716 18.7611C4.97416 19.1121 4.86816 19.4811 4.86816 19.8511C4.86816 21.0811 5.74816 22.0831 7.10116 22.0831H7.10016Z" fill="url(#paint0_linear_503_22)"/>
<defs>
<linearGradient id="paint0_linear_503_22" x1="4.86816" y1="5.27002" x2="23.1232" y2="5.27002" gradientUnits="userSpaceOnUse">
<stop stop-color="#EBCB8B"/>
<stop offset="1" stop-color="#EBCB8B"/>
</linearGradient>
</defs>
</svg>
