<svg width="34" height="34" viewBox="0 0 34 34" fill="none" xmlns="http://www.w3.org/2000/svg">
<path fill-rule="evenodd" clip-rule="evenodd" d="M15.638 8.98424C15.638 8.19651 14.9984 7.55688 14.2106 7.55688H11.3561C10.5682 7.55688 9.92871 8.19651 9.92871 8.98424V25.0182C9.92871 25.8059 10.5682 26.4455 11.3561 26.4455H14.2106C14.9984 26.4455 15.638 25.8059 15.638 25.0182V8.98424Z" fill="#88C0D0"/>
<path fill-rule="evenodd" clip-rule="evenodd" d="M24.0745 8.98424C24.0745 8.19651 23.4349 7.55688 22.6472 7.55688H19.7926C19.0047 7.55688 18.3652 8.19651 18.3652 8.98424V25.0182C18.3652 25.8059 19.0047 26.4455 19.7926 26.4455H22.6472C23.4349 26.4455 24.0745 25.8059 24.0745 25.0182V8.98424Z" fill="#88C0D0"/>
</svg>
