<svg width="512" height="512" viewBox="0 0 512 512" fill="none" xmlns="http://www.w3.org/2000/svg">
<g clip-path="url(#clip0_503_33)">
<path d="M80 368H16C11.7565 368 7.68687 369.686 4.68629 372.686C1.68571 375.687 0 379.757 0 384L0 448C0 452.243 1.68571 456.313 4.68629 459.314C7.68687 462.314 11.7565 464 16 464H80C84.2435 464 88.3131 462.314 91.3137 459.314C94.3143 456.313 96 452.243 96 448V384C96 379.757 94.3143 375.687 91.3137 372.686C88.3131 369.686 84.2435 368 80 368ZM80 48H16C11.7565 48 7.68687 49.6857 4.68629 52.6863C1.68571 55.6869 0 59.7565 0 64L0 128C0 132.243 1.68571 136.313 4.68629 139.314C7.68687 142.314 11.7565 144 16 144H80C84.2435 144 88.3131 142.314 91.3137 139.314C94.3143 136.313 96 132.243 96 128V64C96 59.7565 94.3143 55.6869 91.3137 52.6863C88.3131 49.6857 84.2435 48 80 48V48ZM80 208H16C11.7565 208 7.68687 209.686 4.68629 212.686C1.68571 215.687 0 219.757 0 224L0 288C0 292.243 1.68571 296.313 4.68629 299.314C7.68687 302.314 11.7565 304 16 304H80C84.2435 304 88.3131 302.314 91.3137 299.314C94.3143 296.313 96 292.243 96 288V224C96 219.757 94.3143 215.687 91.3137 212.686C88.3131 209.686 84.2435 208 80 208ZM496 384H176C171.757 384 167.687 385.686 164.686 388.686C161.686 391.687 160 395.757 160 400V432C160 436.243 161.686 440.313 164.686 443.314C167.687 446.314 171.757 448 176 448H496C500.243 448 504.313 446.314 507.314 443.314C510.314 440.313 512 436.243 512 432V400C512 395.757 510.314 391.687 507.314 388.686C504.313 385.686 500.243 384 496 384ZM496 64H176C171.757 64 167.687 65.6857 164.686 68.6863C161.686 71.6869 160 75.7565 160 80V112C160 116.243 161.686 120.313 164.686 123.314C167.687 126.314 171.757 128 176 128H496C500.243 128 504.313 126.314 507.314 123.314C510.314 120.313 512 116.243 512 112V80C512 75.7565 510.314 71.6869 507.314 68.6863C504.313 65.6857 500.243 64 496 64V64ZM496 224H176C171.757 224 167.687 225.686 164.686 228.686C161.686 231.687 160 235.757 160 240V272C160 276.243 161.686 280.313 164.686 283.314C167.687 286.314 171.757 288 176 288H496C500.243 288 504.313 286.314 507.314 283.314C510.314 280.313 512 276.243 512 272V240C512 235.757 510.314 231.687 507.314 228.686C504.313 225.686 500.243 224 496 224Z" fill="#88C0D0"/>
</g>
<defs>
<clipPath id="clip0_503_33">
<rect width="512" height="512" fill="white"/>
</clipPath>
</defs>
</svg>
