<svg width="512" height="512" viewBox="0 0 512 512" fill="none" xmlns="http://www.w3.org/2000/svg">
<g clip-path="url(#clip0_503_35)">
<path d="M482.198 374.266L403.481 328.818C387.591 319.644 367.652 331.126 367.652 349.504V377.091H151.059C87.4619 377.09 35.722 325.351 35.722 261.753C35.722 251.889 27.725 243.893 17.862 243.893C7.99795 243.893 0.00195312 251.89 0.00195312 261.753C0.00195312 345.047 67.767 412.811 151.06 412.811H367.651V440.398C367.651 458.745 387.564 470.274 403.48 461.084L482.197 415.637C498.087 406.465 498.114 383.456 482.198 374.266V374.266ZM360.943 99.1891H144.35V71.6011C144.35 53.2541 124.437 41.7251 108.521 50.9151L29.804 96.3621C13.915 105.535 13.887 128.544 29.804 137.734L108.521 183.182C124.411 192.356 144.35 180.873 144.35 162.496V134.909H360.943C424.541 134.909 476.28 186.648 476.28 250.246C476.28 260.11 484.277 268.106 494.14 268.106C504.004 268.106 512 260.109 512 250.246C512.001 166.953 444.236 99.1891 360.943 99.1891Z" fill="#88C0D0"/>
<path d="M74.8906 510H186.391V480.25H151.641V325H124.391C112.391 332.25 99.8906 337 81.1406 340.5V363.25H114.891V480.25H74.8906V510Z" fill="#ECEFF4"/>
</g>
<defs>
<clipPath id="clip0_503_35">
<rect width="512" height="512" fill="white"/>
</clipPath>
</defs>
</svg>
