<svg width="231" height="231" viewBox="0 0 231 231" fill="none" xmlns="http://www.w3.org/2000/svg">
<g clip-path="url(#clip0_503_42)">
<path d="M199.419 124.497C198.583 123.661 197.591 122.998 196.499 122.546C195.407 122.094 194.237 121.861 193.055 121.861C191.873 121.861 190.703 122.093 189.611 122.546C188.519 122.998 187.526 123.661 186.691 124.497C185.003 126.184 184.054 128.474 184.054 130.861C184.054 132.043 184.287 133.213 184.739 134.305C185.191 135.397 185.854 136.389 186.69 137.225L199.327 149.861H190.921C182.725 149.854 174.787 146.996 168.468 141.778L136.122 115.027L168.467 88.276C174.787 83.0577 182.725 80.2001 190.921 80.193H199.327L186.69 92.83C185.431 94.0887 184.574 95.6923 184.227 97.4382C183.88 99.184 184.058 100.994 184.739 102.638C185.42 104.283 186.574 105.688 188.054 106.677C189.534 107.666 191.274 108.194 193.054 108.194C194.236 108.195 195.407 107.963 196.499 107.511C197.591 107.059 198.583 106.395 199.418 105.558L227.418 77.558C228.254 76.7223 228.917 75.7301 229.369 74.6382C229.821 73.5462 230.054 72.3759 230.054 71.194C230.054 70.0121 229.821 68.8418 229.369 67.7498C228.917 66.6579 228.254 65.6657 227.418 64.83L199.418 36.83C197.73 35.142 195.441 34.1937 193.054 34.1936C190.667 34.1935 188.377 35.1417 186.689 36.8295C185.002 38.5173 184.053 40.8066 184.053 43.1937C184.053 45.5807 185.001 47.87 186.689 49.558L199.326 62.194H190.92C178.537 62.2045 166.543 66.5215 156.994 74.405L122 103.348L82.564 70.733C75.8868 65.2192 67.4995 62.2 58.84 62.193H9C4.029 62.193 0 66.222 0 71.193C0 76.164 4.029 80.193 9 80.193H58.841C63.303 80.193 67.654 81.759 71.093 84.604L107.879 115.027L71.094 145.45C67.6453 148.298 63.3135 149.857 58.841 149.861H9C4.029 149.861 0 153.89 0 158.861C0 163.832 4.029 167.861 9 167.861H58.841C67.481 167.861 75.906 164.828 82.566 159.321L122 126.707L156.996 155.65C166.544 163.534 178.538 167.851 190.921 167.861H199.327L186.69 180.497C185.431 181.756 184.574 183.359 184.227 185.105C183.88 186.851 184.058 188.661 184.739 190.305C185.42 191.95 186.574 193.355 188.054 194.344C189.534 195.333 191.274 195.861 193.054 195.861C194.236 195.862 195.407 195.63 196.499 195.178C197.591 194.726 198.583 194.062 199.418 193.225L227.418 165.225C228.254 164.389 228.917 163.397 229.369 162.305C229.821 161.213 230.054 160.043 230.054 158.861C230.054 157.679 229.821 156.509 229.369 155.417C228.917 154.325 228.254 153.333 227.418 152.497L199.419 124.497V124.497Z" fill="#88C0D0"/>
</g>
<defs>
<clipPath id="clip0_503_42">
<rect width="230.055" height="230.055" fill="white"/>
</clipPath>
</defs>
</svg>
